<svg xmlns="http://www.w3.org/2000/svg" viewBox="0 0 64 64" role="img" aria-label="LongTail Foods">
  
  <path d="M31 15 C30 27 29 34 28 43 C27 51 26 56 21 57 C17.5 57.6 16.3 54.6 17.8 52.2" fill="none" stroke="#6E9A55" stroke-width="3.4" stroke-linecap="round"></path>
  
  <path d="M30 25 C34 15 42 10 49 10.5 C46.5 19 40 26 30 25 Z" fill="#6E9A55"></path>
  
  <path d="M29 42 C22 36 16 36 11.5 38 C16.5 43 23 45 29 42 Z" fill="#A3A862"></path>
  
  <path d="M28.5 46 C35.5 44 42 46 46 50 C40 54 33 52.5 28.5 46 Z" fill="#E0A075"></path>
</svg>